<svg xmlns="http://www.w3.org/2000/svg" xml:space="preserve" style="fill-rule:evenodd;clip-rule:evenodd;stroke-linejoin:round;stroke-miterlimit:2" viewBox="0 0 43 43"><path d="m21.5 1.5-20 25.263 20 14.737 20-14.737L21.5 1.5Z" style="fill:#fffbd9"/><path d="m21.5 1.5-20 25.263 20 14.737 20-14.737L21.5 1.5Z" style="fill:#fff9da"/><clipPath id="a"><path d="m21.5 1.5-20 25.263 20 14.737 20-14.737L21.5 1.5Z"/></clipPath><g clip-path="url(#a)"><path d="m21.45 41.5 20-14.737-7.725-15.158L21.45 21v20.5Z" style="fill:#4d7084;fill-opacity:.55"/><path d="m21.45 41.5 18.07-13.278-10.368-13.098-7.702 5.604V41.5Z" style="fill:#4d7084"/><path d="M21.45 41.5 3.48 28.222l10.368-13.098 7.602 5.604V41.5Z" style="fill:#ffc97e"/></g><path d="m22.676.569 20 25.263a1.498 1.498 0 0 1-.286 2.139l-20 14.737a1.503 1.503 0 0 1-1.78 0l-20-14.737a1.498 1.498 0 0 1-.286-2.139l20-25.263a1.5 1.5 0 0 1 2.352 0ZM21.5 3.917 3.64 26.477l17.86 13.16 17.86-13.16L21.5 3.917Z"/><path d="m21.5 1.5-8 10.105 8 5.895 8-5.895-8-10.105Z" style="fill:#f8f5df"/><clipPath id="b"><path d="m21.5 1.5-8 10.105 8 5.895 8-5.895-8-10.105Z"/></clipPath><g clip-path="url(#b)"><path d="M21.5 18.658V3.325l7.667 9.684-7.667 5.649Z" style="fill:#ffc97e;fill-opacity:.55"/><path d="M21.5 19V5.667l6.667 8.421L21.5 19Z" style="fill:#c6c8bc"/></g><path d="m22.676.569 8 10.105a1.498 1.498 0 0 1-.286 2.139l-8 5.895a1.503 1.503 0 0 1-1.78 0l-8-5.895a1.5 1.5 0 0 1-.286-2.139l8-10.105a1.5 1.5 0 0 1 2.352 0ZM21.5 3.917l-5.86 7.402 5.86 4.318 5.86-4.318-5.86-7.402Z"/></svg>